<svg width="59" height="58" viewBox="0 0 59 58" fill="none" xmlns="http://www.w3.org/2000/svg">
<circle cx="29.5" cy="29" r="29" fill="url(#paint0_linear_14_96)"/>
<path fill-rule="evenodd" clip-rule="evenodd" d="M37.3595 14.843H34.9156V15.7427H34.9136C34.9136 15.8507 34.8788 15.9559 34.8144 16.0427C34.75 16.1295 34.6595 16.1933 34.556 16.2246C34.3128 16.2985 33.834 16.4831 33.6192 16.6087C33.522 16.6717 33.4062 16.6995 33.291 16.6873C33.1758 16.6752 33.0684 16.6239 32.9865 16.542L32.35 15.9056L30.6218 17.6338L31.2583 18.2703L31.257 18.2716C31.3334 18.348 31.3832 18.4469 31.399 18.5537C31.4149 18.6605 31.3961 18.7696 31.3452 18.8649C31.2265 19.0873 31.0166 19.5576 30.9538 19.7981C30.9299 19.9116 30.8676 20.0134 30.7775 20.0864C30.6874 20.1595 30.575 20.1994 30.459 20.1994H29.5593V22.6433H30.4589V22.6453C30.5669 22.6453 30.6721 22.6801 30.7589 22.7445C30.8457 22.8089 30.9095 22.8995 30.9409 23.0029C31.0147 23.2461 31.1994 23.7248 31.3251 23.9397C31.388 24.0368 31.4158 24.1527 31.4036 24.2679C31.3915 24.383 31.3402 24.4905 31.2583 24.5724L30.6218 25.209L32.35 26.9371L32.9865 26.3007L32.9878 26.3019C33.0642 26.2256 33.1631 26.1758 33.2699 26.1599C33.3768 26.1441 33.4859 26.1629 33.5812 26.2137C33.8037 26.3326 34.2737 26.5424 34.5144 26.6052C34.6279 26.6292 34.7297 26.6915 34.8027 26.7816C34.8758 26.8717 34.9157 26.9841 34.9157 27.1001V27.9998H37.3596V27.1001H37.3616C37.3616 26.992 37.3964 26.8869 37.4608 26.8001C37.5252 26.7133 37.6158 26.6495 37.7192 26.6181C37.9625 26.5443 38.441 26.3597 38.656 26.2339C38.7531 26.1709 38.869 26.1432 38.9842 26.1554C39.0993 26.1675 39.2068 26.2188 39.2888 26.3007L39.9253 26.9371L41.6535 25.209L41.017 24.5724L41.0182 24.5712C40.9419 24.4948 40.8921 24.3959 40.8763 24.2891C40.8604 24.1823 40.8792 24.0732 40.9301 23.9779C41.049 23.7553 41.2587 23.2853 41.3215 23.0447C41.3455 22.9312 41.4078 22.8294 41.4979 22.7563C41.588 22.6833 41.7004 22.6434 41.8164 22.6434H42.7161V20.1995H41.8164V20.1975C41.7083 20.1975 41.6032 20.1627 41.5164 20.0983C41.4296 20.0339 41.3658 19.9433 41.3344 19.8399C41.2606 19.5967 41.076 19.118 40.9502 18.9031C40.8872 18.8059 40.8595 18.6901 40.8716 18.5749C40.8838 18.4597 40.9351 18.3522 41.017 18.2703L41.6535 17.6338L39.9253 15.9057L39.2888 16.5421L39.2875 16.5408C39.2111 16.6172 39.1122 16.6669 39.0054 16.6828C38.8986 16.6987 38.7895 16.6798 38.6942 16.629C38.4717 16.5102 38.0016 16.3005 37.761 16.2376C37.6475 16.2136 37.5457 16.1514 37.4726 16.0613C37.3996 15.9712 37.3597 15.8587 37.3597 15.7427V14.8431L37.3595 14.843ZM37.7624 19.7965C38.6598 20.6939 38.6597 22.1489 37.7624 23.0462C36.8651 23.9435 35.41 23.9435 34.5127 23.0462C33.6154 22.1489 33.6154 20.6938 34.5127 19.7965C35.41 18.8992 36.8651 18.8992 37.7624 19.7965ZM36.1376 18.1121C37.9651 18.1121 39.4468 19.5938 39.4468 21.4213C39.4468 23.2488 37.9651 24.7305 36.1376 24.7305C34.31 24.7305 32.8283 23.2488 32.8283 21.4213C32.8283 19.5937 34.31 18.1121 36.1376 18.1121ZM37.5899 40.8683C37.4864 40.7849 37.4199 40.6641 37.4049 40.532C37.3899 40.4 37.4275 40.2673 37.5097 40.1628C37.5918 40.0583 37.7118 39.9904 37.8437 39.9738C37.9756 39.9572 38.1087 39.9933 38.2141 40.0742L39.6567 41.2085L41.9813 38.5233C42.0697 38.4255 42.1929 38.3662 42.3245 38.3582C42.4561 38.3501 42.5857 38.3939 42.6854 38.4802C42.7851 38.5664 42.847 38.6883 42.858 38.8197C42.8689 38.9511 42.8279 39.0816 42.7439 39.1831L40.1229 42.2107C39.9454 42.4284 39.6359 42.4771 39.4105 42.2998L37.5901 40.8683H37.5899ZM13.0763 14.6356H14.9826C15.2342 14.6356 15.4417 14.4281 15.4417 14.1765V11.7696L13.0763 14.6356ZM23.4274 20.6157C23.2933 20.6157 23.1646 20.5624 23.0698 20.4675C22.9749 20.3727 22.9217 20.2441 22.9217 20.1099C22.9217 19.9758 22.9749 19.8472 23.0698 19.7523C23.1646 19.6575 23.2933 19.6042 23.4274 19.6042H27.1099C27.244 19.6042 27.3726 19.6575 27.4675 19.7523C27.5623 19.8472 27.6156 19.9758 27.6156 20.1099C27.6156 20.2441 27.5623 20.3727 27.4675 20.4675C27.3726 20.5624 27.244 20.6157 27.1099 20.6157H23.4274ZM23.4274 23.2385C23.2933 23.2385 23.1646 23.1852 23.0698 23.0904C22.9749 22.9955 22.9217 22.8669 22.9217 22.7328C22.9217 22.5986 22.9749 22.47 23.0698 22.3752C23.1646 22.2803 23.2933 22.227 23.4274 22.227H27.1099C27.244 22.227 27.3726 22.2803 27.4675 22.3752C27.5623 22.47 27.6156 22.5986 27.6156 22.7328C27.6156 22.8669 27.5623 22.9955 27.4675 23.0904C27.3726 23.1852 27.244 23.2385 27.1099 23.2385H23.4274ZM15.5561 43.3273V44.5027C15.5561 44.7542 15.7637 44.9616 16.0152 44.9616H35.472C35.0613 44.4556 34.7049 43.9078 34.4087 43.3272H15.5561V43.3273ZM40.0896 32.7602C39.9766 32.7698 38.3094 33.2634 38.0563 33.3363V28.7589C38.1554 28.6687 38.2346 28.5589 38.2888 28.4363C38.343 28.3138 38.371 28.1813 38.371 28.0473V27.4618L38.8296 27.2717L39.2436 27.6858L39.2447 27.6848C39.4674 27.9122 39.7908 28.0052 40.0897 27.9534V32.7601L40.0896 32.7602ZM40.5037 33.8927L40.1322 33.7856L34.4121 35.4341V39.1451C34.4121 40.9259 34.9964 42.6464 36.0476 44.0561C36.3763 44.4968 36.6046 44.7346 36.9896 45.1163C37.8676 45.9479 38.9339 46.5908 40.1322 46.967C41.8001 46.4433 43.2123 45.4032 44.2168 44.0561C45.2517 42.6682 45.8523 40.9547 45.8523 39.1451V35.4341L40.5037 33.8927ZM40.0896 14.8893C39.7964 14.8385 39.5193 14.9197 39.2833 15.1212L38.8295 15.5709L38.3709 15.3809V14.7954H38.3689C38.3693 14.6615 38.3417 14.5291 38.2878 14.4065C38.234 14.284 38.1551 14.174 38.0562 14.0838V13.6573H39.6305C39.8807 13.6573 40.0895 13.8619 40.0895 14.1164L40.0896 14.8893ZM38.0563 12.6459H39.6306C40.44 12.6459 41.1011 13.3086 41.1011 14.1164V15.6513L42.4019 16.9522C42.7751 17.3254 42.7796 17.9376 42.4019 18.3153L41.9879 18.7293L42.178 19.1879H42.7634C43.2944 19.1879 43.7273 19.6227 43.7273 20.1519V22.6908C43.7273 23.2217 43.2921 23.6547 42.7634 23.6547H42.178L41.988 24.1134L42.4395 24.5693C42.5959 24.7456 42.6822 24.9732 42.6818 25.2089H42.6838C42.6838 25.4515 42.5888 25.7054 42.401 25.8894L42.402 25.8904L41.1011 27.1913V33.0172L46.4497 34.5585C46.566 34.5799 46.6711 34.6414 46.7467 34.7323C46.8224 34.8232 46.8638 34.9377 46.8638 35.0559V39.1451C46.8638 41.1771 46.1893 43.1016 45.0268 44.6606C43.8693 46.2128 42.2263 47.4029 40.2822 47.9759C40.1872 48.0056 40.0855 48.0064 39.9901 47.9782C38.6361 47.5804 37.428 46.8833 36.4278 45.973H16.0152C15.2054 45.973 14.5447 45.3124 14.5447 44.5026V43.3272H12.9705C12.1607 43.3272 11.5 42.6667 11.5 41.8569V15.1413C11.5 15.0004 11.5506 14.8918 11.6446 14.7873L15.4424 10.1857C15.4896 10.1282 15.549 10.0819 15.6163 10.0501C15.6836 10.0183 15.7571 10.0018 15.8316 10.0019V10H36.5858C37.3956 10 38.0563 10.6609 38.0563 11.4706V12.6459ZM20.1426 19.5099H16.3198V23.3328H20.1426V21.3096L18.8589 22.5609C18.7729 22.6546 18.6546 22.7123 18.5278 22.7225C18.401 22.7328 18.275 22.6948 18.1749 22.6162L16.6434 21.412C16.5399 21.3286 16.4735 21.2078 16.4585 21.0757C16.4434 20.9437 16.4811 20.811 16.5632 20.7065C16.6454 20.602 16.7654 20.5341 16.8972 20.5175C17.0291 20.5009 17.1622 20.537 17.2677 20.6179L18.4519 21.5491L20.1426 19.9011V19.5098V19.5099ZM15.8141 18.4985C15.68 18.4985 15.5513 18.5518 15.4565 18.6466C15.3616 18.7414 15.3084 18.8701 15.3084 19.0042V23.8385C15.3084 23.9726 15.3616 24.1012 15.4565 24.1961C15.5513 24.2909 15.68 24.3442 15.8141 24.3442H20.6484C20.7825 24.3442 20.9111 24.2909 21.006 24.1961C21.1008 24.1012 21.1541 23.9726 21.1541 23.8385V20.3238L21.9007 19.5961C21.9482 19.5499 21.9861 19.4948 22.0123 19.434C22.0385 19.3731 22.0524 19.3078 22.0534 19.2415C22.0543 19.1753 22.0421 19.1096 22.0176 19.048C21.9932 18.9865 21.9568 18.9304 21.9106 18.8829C21.8644 18.8354 21.8094 18.7975 21.7485 18.7713C21.6877 18.7451 21.6223 18.7312 21.5561 18.7303C21.4899 18.7294 21.4241 18.7415 21.3626 18.766C21.301 18.7905 21.2449 18.8268 21.1975 18.873L21.1474 18.9219C21.1278 18.8036 21.0669 18.6962 20.9755 18.6187C20.8841 18.5411 20.7682 18.4986 20.6484 18.4986L15.8141 18.4985ZM23.4274 28.1386C23.2933 28.1386 23.1646 28.0853 23.0698 27.9905C22.9749 27.8957 22.9217 27.767 22.9217 27.6329C22.9217 27.4988 22.9749 27.3701 23.0698 27.2753C23.1646 27.1805 23.2933 27.1272 23.4274 27.1272H29.5882C29.7223 27.1272 29.851 27.1805 29.9458 27.2753C30.0406 27.3701 30.0939 27.4988 30.0939 27.6329C30.0939 27.767 30.0406 27.8957 29.9458 27.9905C29.851 28.0853 29.7223 28.1386 29.5882 28.1386H23.4274ZM23.4274 30.7614H33.9065C34.0406 30.7614 34.1692 30.7082 34.2641 30.6133C34.3589 30.5185 34.4122 30.3899 34.4122 30.2557C34.4122 30.1216 34.3589 29.993 34.2641 29.8981C34.1692 29.8033 34.0406 29.75 33.9065 29.75H23.4274C23.2933 29.75 23.1646 29.8033 23.0698 29.8981C22.9749 29.993 22.9217 30.1216 22.9217 30.2557C22.9217 30.3899 22.9749 30.5185 23.0698 30.6133C23.1646 30.7082 23.2933 30.7614 23.4274 30.7614ZM20.1426 27.0329H16.3198V30.8557H20.1426V28.8326L18.8589 30.0839C18.7729 30.1776 18.6546 30.2353 18.5278 30.2456C18.401 30.2559 18.275 30.2179 18.1749 30.1393L16.6434 28.9351C16.5399 28.8517 16.4735 28.7309 16.4585 28.5988C16.4434 28.4667 16.4811 28.3341 16.5632 28.2296C16.6454 28.1251 16.7654 28.0572 16.8972 28.0406C17.0291 28.024 17.1622 28.06 17.2677 28.1409L18.4519 29.0722L20.1426 27.4242V27.0329ZM15.8141 26.0215C15.7477 26.0215 15.6819 26.0345 15.6205 26.0599C15.5592 26.0854 15.5034 26.1226 15.4565 26.1696C15.4095 26.2165 15.3723 26.2723 15.3468 26.3336C15.3214 26.395 15.3084 26.4608 15.3084 26.5272V31.3615C15.3084 31.4279 15.3214 31.4936 15.3468 31.555C15.3723 31.6163 15.4095 31.6721 15.4565 31.7191C15.5034 31.766 15.5592 31.8033 15.6205 31.8287C15.6819 31.8541 15.7477 31.8672 15.8141 31.8672H20.6484C20.7825 31.8672 20.9111 31.8139 21.006 31.7191C21.1008 31.6242 21.1541 31.4956 21.1541 31.3615V27.8467L21.9007 27.119C21.9966 27.0258 22.0515 26.8982 22.0534 26.7645C22.0552 26.6308 22.0039 26.5018 21.9106 26.4059C21.8644 26.3584 21.8094 26.3205 21.7485 26.2943C21.6877 26.2681 21.6223 26.2542 21.5561 26.2532C21.4223 26.2514 21.2933 26.3027 21.1975 26.396L21.1474 26.4448C21.1278 26.3266 21.0669 26.2192 20.9755 26.1416C20.8841 26.0641 20.7682 26.0216 20.6484 26.0215L15.8141 26.0215ZM23.4274 38.2844H33.4007V39.1451C33.4007 40.2475 33.5993 41.318 33.9665 42.3159H12.9705C12.7189 42.3159 12.5114 42.1083 12.5114 41.8569V15.647H14.9826C15.7925 15.647 16.4531 14.9864 16.4531 14.1765V11.0114H36.5858C36.8372 11.0114 37.0448 11.2192 37.0448 11.4706V13.8315H34.868C34.3389 13.8315 33.9042 14.2644 33.9042 14.7954V15.3809L33.4456 15.5709L33.0315 15.1568C32.6558 14.7811 32.0441 14.7811 31.6685 15.1568L29.8731 16.9522L29.8741 16.9532C29.4993 17.3205 29.496 17.938 29.8731 18.3153L30.2872 18.7293L30.0971 19.1879H29.5116V19.1899C29.3852 19.1896 29.26 19.2142 29.1431 19.2624C29.0262 19.3106 28.92 19.3813 28.8306 19.4707L28.8316 19.4717C28.6571 19.6426 28.5479 19.8901 28.5479 20.1519V22.6908C28.5479 23.2209 28.9846 23.6547 29.5117 23.6547H30.0972L30.2872 24.1134L29.8732 24.5274L29.8742 24.5284C29.4948 24.9001 29.5011 25.5183 29.8732 25.8905L31.6686 27.6859L31.6696 27.6848C31.8537 27.8727 32.1075 27.9676 32.3501 27.9676V27.9656C32.5787 27.9656 32.8079 27.8848 32.9897 27.7233L33.4456 27.2718L33.9042 27.462V28.0473C33.9042 28.313 34.0125 28.5541 34.187 28.7285L34.188 28.7275C34.3636 28.9026 34.6043 29.0112 34.8681 29.0112H37.0449V33.6278L33.7682 34.5721C33.7108 34.5885 33.6567 34.6149 33.6086 34.6502H23.4274C23.2933 34.6502 23.1646 34.7035 23.0698 34.7984C22.9749 34.8932 22.9217 35.0218 22.9217 35.156C22.9217 35.2901 22.9749 35.4187 23.0698 35.5136C23.1646 35.6084 23.2933 35.6617 23.4274 35.6617H33.4007V37.2731H23.4274C23.2933 37.2731 23.1646 37.3263 23.0698 37.4212C22.9749 37.516 22.9217 37.6447 22.9217 37.7788C22.9217 37.9129 22.9749 38.0415 23.0698 38.1364C23.1646 38.2312 23.2933 38.2845 23.4274 38.2845V38.2844ZM20.1426 34.5559H16.3198V38.3787H20.1426V36.3555L18.8589 37.6068C18.7729 37.7005 18.6546 37.7582 18.5278 37.7685C18.401 37.7788 18.275 37.7408 18.1749 37.6622L16.6434 36.4579C16.5399 36.3745 16.4735 36.2537 16.4585 36.1216C16.4434 35.9895 16.4811 35.8569 16.5632 35.7524C16.6454 35.6479 16.7654 35.58 16.8972 35.5634C17.0291 35.5468 17.1622 35.5829 17.2677 35.6637L18.4519 36.595L20.1426 34.947V34.5557V34.5559ZM15.8141 33.5444C15.68 33.5444 15.5513 33.5977 15.4565 33.6925C15.3616 33.7874 15.3084 33.916 15.3084 34.0501V38.8844C15.3084 39.0186 15.3616 39.1472 15.4565 39.242C15.5513 39.3369 15.68 39.3902 15.8141 39.3902H20.6484C20.7825 39.3902 20.9111 39.3369 21.006 39.242C21.1008 39.1472 21.1541 39.0186 21.1541 38.8844V35.3697L21.9007 34.642C21.9482 34.5958 21.9861 34.5408 22.0123 34.4799C22.0385 34.4191 22.0524 34.3537 22.0534 34.2875C22.0543 34.2213 22.0421 34.1555 22.0176 34.094C21.9932 34.0324 21.9568 33.9763 21.9106 33.9289C21.8644 33.8814 21.8094 33.8435 21.7485 33.8173C21.6877 33.7911 21.6223 33.7771 21.5561 33.7762C21.4899 33.7753 21.4241 33.7874 21.3626 33.8119C21.301 33.8364 21.2449 33.8728 21.1975 33.919L21.1474 33.9678C21.1278 33.8496 21.0669 33.7421 20.9755 33.6646C20.8841 33.5871 20.7682 33.5445 20.6484 33.5445H15.8141V33.5444Z" fill="white"/>
<defs>
<linearGradient id="paint0_linear_14_96" x1="29.5" y1="0" x2="29.5" y2="58" gradientUnits="userSpaceOnUse">
<stop stop-color="#00D2FF"/>
<stop offset="1" stop-color="#059DBE"/>
</linearGradient>
</defs>
</svg>
