<svg width="59" height="58" viewBox="0 0 59 58" fill="none" xmlns="http://www.w3.org/2000/svg">
<circle cx="29.5" cy="29" r="29" fill="url(#paint0_linear_14_85)"/>
<path d="M12.1009 42.211H13.4014V40.9105H12.1009C11.3826 40.9105 10.8005 40.3284 10.8005 39.6101V13.6009C10.8005 12.8826 11.3826 12.3005 12.1009 12.3005H40.711C41.4293 12.3005 42.0114 12.8826 42.0114 13.6009V14.9014H43.3119V13.6009C43.3119 12.1645 42.1473 11 40.711 11H12.1009C10.6645 11 9.5 12.1645 9.5 13.6009V39.6101C9.5 41.0464 10.6645 42.211 12.1009 42.211Z" fill="white"/>
<path d="M12.1008 13.6008H13.4013V14.9013H12.1008V13.6008ZM14.7017 13.6008H16.0022V14.9013H14.7017V13.6008ZM17.3027 13.6008H18.6031V14.9013H17.3027V13.6008ZM14.7017 44.8118C14.7017 46.2482 15.8663 47.4127 17.3027 47.4127H45.9127C47.3491 47.4127 48.5136 46.2482 48.5136 44.8118V18.8027C48.5136 17.3663 47.3491 16.2017 45.9127 16.2017H17.3027C15.8663 16.2017 14.7017 17.3663 14.7017 18.8027V44.8118ZM16.0022 18.8027C16.0022 18.0843 16.5843 17.5022 17.3027 17.5022H45.9127C46.6311 17.5022 47.2132 18.0843 47.2132 18.8027V44.8118C47.2132 45.5302 46.6311 46.1123 45.9127 46.1123H17.3027C16.5843 46.1123 16.0022 45.5302 16.0022 44.8118V18.8027Z" fill="white"/>
<path d="M17.3027 18.8027H18.6032V20.1032H17.3027V18.8027ZM19.9036 18.8027H21.2041V20.1032H19.9036V18.8027ZM22.5046 18.8027H23.805V20.1032H22.5046V18.8027ZM17.3027 21.4036H45.9128V22.7041H17.3027V21.4036ZM17.3027 24.6548H22.5046V25.9553H17.3027V24.6548ZM17.3027 27.2557H21.2041V28.5562H17.3027V27.2557ZM31.6078 29.8566C29.0938 29.8566 27.0562 31.8943 27.0562 34.4082C27.0562 36.9222 29.0938 38.9598 31.6078 38.9598C34.1217 38.9598 36.1594 36.9222 36.1594 34.4082C36.1565 31.8957 34.1203 29.8595 31.6078 29.8566ZM31.6078 37.6594C29.8123 37.6594 28.3566 36.2037 28.3566 34.4082C28.3566 32.6128 29.8123 31.1571 31.6078 31.1571C33.4032 31.1571 34.8589 32.6128 34.8589 34.4082C34.8566 36.2029 33.4024 37.6571 31.6078 37.6594Z" fill="white"/>
<path d="M42.0114 32.4576C42.0114 32.0984 41.7205 31.8074 41.3612 31.8074H39.6426C39.5052 31.3801 39.3331 30.9648 39.1283 30.5654L40.3436 29.351C40.5972 29.0969 40.5972 28.6855 40.3436 28.4314L37.5847 25.6725C37.3306 25.4189 36.9192 25.4189 36.6651 25.6725L35.4506 26.8871C35.051 26.683 34.6357 26.5113 34.2087 26.3734V24.6549C34.2087 24.2956 33.9177 24.0046 33.5584 24.0046H29.6571C29.2978 24.0046 29.0068 24.2956 29.0068 24.6549V26.3734C28.5798 26.5113 28.1645 26.683 27.7649 26.8871L26.5505 25.6725C26.2964 25.4189 25.8849 25.4189 25.6309 25.6725L22.8719 28.4314C22.6183 28.6855 22.6183 29.0969 22.8719 29.351L24.0866 30.5654C24.0323 30.6714 23.9803 30.7785 23.9305 30.8867C23.7934 31.1863 23.674 31.4937 23.5729 31.8074H21.8543C21.4951 31.8074 21.2041 32.0984 21.2041 32.4576V36.359C21.2041 36.7182 21.4951 37.0092 21.8543 37.0092H23.5729C23.7104 37.4365 23.8824 37.8518 24.0872 38.2512L22.8719 39.4656C22.6183 39.7197 22.6183 40.1311 22.8719 40.3852L25.6309 43.1441C25.8849 43.3977 26.2964 43.3977 26.5505 43.1441L27.7649 41.9295C28.1645 42.1336 28.5798 42.3053 29.0068 42.4432V44.1617C29.0068 44.521 29.2978 44.812 29.6571 44.812H33.5584C33.9177 44.812 34.2087 44.521 34.2087 44.1617V42.4432C34.6357 42.3053 35.051 42.1336 35.4506 41.9295L36.6651 43.1441C36.9192 43.3977 37.3306 43.3977 37.5847 43.1441L40.3436 40.3852C40.5972 40.1311 40.5972 39.7197 40.3436 39.4656L39.1283 38.2512C39.3332 37.8518 39.5052 37.4365 39.6427 37.0092H41.3612C41.7205 37.0092 42.0114 36.7182 42.0114 36.359V32.4576ZM40.711 35.7088H39.1543C39.0102 35.7088 38.8702 35.7567 38.7562 35.845C38.6423 35.9333 38.5609 36.0569 38.5249 36.1964C38.3588 36.842 38.1027 37.461 37.7641 38.0353C37.6135 38.2905 37.6549 38.6156 37.8643 38.8253L38.9636 39.9253L37.1248 41.765L36.0248 40.6648C35.9228 40.5628 35.7898 40.4977 35.6467 40.4795C35.5036 40.4614 35.3586 40.4913 35.2344 40.5646C34.6603 40.9033 34.0414 41.1594 33.3959 41.3254C33.2563 41.3615 33.1327 41.4429 33.0444 41.5568C32.9562 41.6707 32.9083 41.8107 32.9082 41.9549V43.5115H30.3073V41.9549C30.3073 41.8107 30.2593 41.6707 30.1711 41.5568C30.0828 41.4428 29.9592 41.3615 29.8196 41.3254C29.1741 41.1594 28.5552 40.9033 27.9811 40.5646C27.8569 40.4913 27.7119 40.4614 27.5688 40.4795C27.4257 40.4977 27.2927 40.5628 27.1907 40.6648L26.0907 41.765L24.2519 39.9253L25.3513 38.8253C25.5606 38.6156 25.6021 38.2905 25.4514 38.0353C25.1129 37.461 24.8568 36.842 24.6907 36.1964C24.6546 36.0569 24.5732 35.9332 24.4593 35.845C24.3453 35.7567 24.2053 35.7088 24.0612 35.7088H22.5046V33.1078H24.0612C24.2053 33.1078 24.3454 33.0599 24.4593 32.9716C24.5732 32.8833 24.6546 32.7597 24.6906 32.6202C24.7956 32.2111 24.9371 31.8123 25.1134 31.4285C25.2149 31.2061 25.3278 30.9891 25.4514 30.7783C25.5245 30.6541 25.5543 30.5093 25.5361 30.3664C25.518 30.2235 25.453 30.0907 25.3513 29.9887L24.2519 28.8887L26.0907 27.049L27.1907 28.1495C27.2928 28.2515 27.4258 28.3166 27.5689 28.3346C27.712 28.3527 27.857 28.3226 27.9811 28.2492C28.5553 27.9107 29.1742 27.6546 29.8197 27.4884C29.9592 27.4524 30.0827 27.3711 30.171 27.2572C30.2593 27.1433 30.3072 27.0034 30.3073 26.8593V25.3051H32.9082V26.8617C32.9083 27.0059 32.9562 27.1459 33.0444 27.2598C33.1327 27.3738 33.2563 27.4551 33.3959 27.4912C34.0414 27.6572 34.6603 27.9133 35.2344 28.2519C35.3586 28.3252 35.5037 28.3552 35.6467 28.337C35.7898 28.3189 35.9228 28.2537 36.0248 28.1518L37.1248 27.0516L38.9636 28.8913L37.8643 29.9913C37.6549 30.201 37.6134 30.5261 37.7641 30.7813C38.1027 31.3556 38.3588 31.9746 38.5249 32.6202C38.5609 32.7597 38.6423 32.8833 38.7562 32.9716C38.8702 33.0599 39.0102 33.1078 39.1543 33.1078H40.711V35.7088ZM42.0114 43.5115H45.9128V44.812H42.0114V43.5115Z" fill="white"/>
<defs>
<linearGradient id="paint0_linear_14_85" x1="29.5" y1="0" x2="29.5" y2="58" gradientUnits="userSpaceOnUse">
<stop stop-color="#00D2FF"/>
<stop offset="1" stop-color="#059DBE"/>
</linearGradient>
</defs>
</svg>
