<svg width="59" height="59" viewBox="0 0 59 59" fill="none" xmlns="http://www.w3.org/2000/svg">
<circle cx="29.5" cy="29.5" r="29" fill="url(#paint0_linear_14_64)"/>
<path d="M29.5001 11.9817C29.302 11.9817 29.112 11.903 28.9719 11.763C28.8318 11.6229 28.7531 11.4329 28.7531 11.2348V8.24696C28.7531 8.04885 28.8318 7.85886 28.9719 7.71878C29.112 7.5787 29.302 7.5 29.5001 7.5C29.6982 7.5 29.8882 7.5787 30.0282 7.71878C30.1683 7.85886 30.247 8.04885 30.247 8.24696V11.2348C30.247 11.4329 30.1683 11.6229 30.0282 11.763C29.8882 11.903 29.6982 11.9817 29.5001 11.9817ZM22.0305 13.9836C21.8993 13.9837 21.7703 13.9492 21.6566 13.8837C21.5429 13.8181 21.4485 13.7238 21.3829 13.6101L19.889 11.0226C19.8392 10.9377 19.8066 10.8437 19.7933 10.7461C19.78 10.6485 19.786 10.5492 19.8112 10.4539C19.8364 10.3587 19.8802 10.2694 19.94 10.1911C19.9998 10.1129 20.0746 10.0473 20.1599 9.998C20.2452 9.94874 20.3394 9.91685 20.4371 9.90415C20.5348 9.89145 20.634 9.8982 20.7291 9.92401C20.8241 9.94982 20.9132 9.99418 20.991 10.0545C21.0689 10.1149 21.134 10.1901 21.1827 10.2757L22.6766 12.8631C22.7421 12.9766 22.7767 13.1054 22.7767 13.2364C22.7767 13.3675 22.7423 13.4962 22.6768 13.6098C22.6113 13.7233 22.5172 13.8176 22.4037 13.8832C22.2903 13.9488 22.1616 13.9834 22.0305 13.9836ZM16.562 19.4513C16.4309 19.4516 16.302 19.417 16.1886 19.3512L13.6004 17.8573C13.4302 17.7575 13.3064 17.5945 13.256 17.4038C13.2056 17.2131 13.2326 17.0102 13.3313 16.8394C13.4299 16.6686 13.5921 16.5437 13.7824 16.492C13.9728 16.4404 14.1758 16.4661 14.3473 16.5636L16.9355 18.0575C17.0779 18.1397 17.1892 18.2666 17.2521 18.4185C17.315 18.5704 17.3261 18.7388 17.2835 18.8977C17.241 19.0565 17.1472 19.1968 17.0167 19.2969C16.8863 19.397 16.7265 19.4513 16.562 19.4513ZM14.5609 26.9208H11.5731C11.375 26.9208 11.185 26.8421 11.045 26.7021C10.9049 26.562 10.8262 26.372 10.8262 26.1739C10.8262 25.9758 10.9049 25.7858 11.045 25.6457C11.185 25.5056 11.375 25.4269 11.5731 25.4269H14.5609C14.7591 25.4269 14.949 25.5056 15.0891 25.6457C15.2292 25.7858 15.3079 25.9758 15.3079 26.1739C15.3079 26.372 15.2292 26.562 15.0891 26.7021C14.949 26.8421 14.7591 26.9208 14.5609 26.9208ZM13.9753 35.8843C13.8109 35.8843 13.6511 35.83 13.5206 35.7299C13.3902 35.6298 13.2964 35.4895 13.2539 35.3307C13.2113 35.1719 13.2223 35.0034 13.2853 34.8515C13.3482 34.6996 13.4595 34.5727 13.6019 34.4905L16.1901 32.9966C16.275 32.9468 16.369 32.9142 16.4666 32.9009C16.5642 32.8875 16.6635 32.8936 16.7588 32.9188C16.854 32.944 16.9433 32.9878 17.0216 33.0476C17.0998 33.1074 17.1654 33.1822 17.2147 33.2675C17.264 33.3528 17.2959 33.447 17.3086 33.5447C17.3212 33.6424 17.3145 33.7416 17.2887 33.8367C17.2629 33.9317 17.2185 34.0208 17.1582 34.0986C17.0978 34.1765 17.0226 34.2416 16.937 34.2903L14.3488 35.7842C14.2354 35.85 14.1065 35.8846 13.9753 35.8843ZM45.0248 35.8843C44.8936 35.8846 44.7647 35.85 44.6513 35.7842L42.0631 34.2903C41.9775 34.2416 41.9023 34.1765 41.842 34.0986C41.7816 34.0208 41.7372 33.9317 41.7114 33.8367C41.6856 33.7416 41.6789 33.6424 41.6916 33.5447C41.7043 33.447 41.7362 33.3528 41.7854 33.2675C41.8347 33.1822 41.9003 33.1074 41.9786 33.0476C42.0568 32.9878 42.1461 32.944 42.2414 32.9188C42.3366 32.8936 42.4359 32.8875 42.5335 32.9009C42.6311 32.9142 42.7251 32.9468 42.8101 32.9966L45.3983 34.4905C45.5406 34.5727 45.6519 34.6996 45.7149 34.8515C45.7778 35.0034 45.7888 35.1719 45.7463 35.3307C45.7037 35.4895 45.6099 35.6298 45.4795 35.7299C45.349 35.83 45.1892 35.8843 45.0248 35.8843ZM47.427 26.9208H44.4392C44.2411 26.9208 44.0511 26.8421 43.911 26.7021C43.7709 26.562 43.6922 26.372 43.6922 26.1739C43.6922 25.9758 43.7709 25.7858 43.911 25.6457C44.0511 25.5056 44.2411 25.4269 44.4392 25.4269H47.427C47.6251 25.4269 47.8151 25.5056 47.9552 25.6457C48.0952 25.7858 48.1739 25.9758 48.1739 26.1739C48.1739 26.372 48.0952 26.562 47.9552 26.7021C47.8151 26.8421 47.6251 26.9208 47.427 26.9208Z" fill="white"/>
<path d="M41.4513 25.4269H37.7166C37.7166 24.6345 37.4018 23.8745 36.8415 23.3142C36.2811 22.7538 35.5212 22.4391 34.7287 22.4391C33.9363 22.4391 33.1764 22.7538 32.616 23.3142C32.0557 23.8745 31.7409 24.6345 31.7409 25.4269H30.247V23.0486C30.2469 22.9291 30.2182 22.8115 30.1632 22.7055C30.1082 22.5995 30.0287 22.5082 29.9311 22.4392C29.8336 22.3703 29.721 22.3258 29.6027 22.3094C29.4844 22.293 29.3639 22.3052 29.2513 22.3449C29.0254 22.4292 28.7824 22.4575 28.5431 22.4274C28.3039 22.3973 28.0754 22.3098 27.8774 22.1722C27.6793 22.0347 27.5174 21.8512 27.4057 21.6375C27.2939 21.4238 27.2355 21.1863 27.2355 20.9451C27.2355 20.704 27.2939 20.4664 27.4057 20.2527C27.5174 20.0391 27.6793 19.8556 27.8774 19.7181C28.0754 19.5805 28.3039 19.493 28.5431 19.4629C28.7824 19.4328 29.0254 19.4611 29.2513 19.5453C29.3639 19.5851 29.4844 19.5973 29.6027 19.5809C29.721 19.5645 29.8336 19.5199 29.9311 19.451C30.0287 19.3821 30.1082 19.2908 30.1632 19.1848C30.2182 19.0788 30.2469 18.9611 30.247 18.8417V14.2225C30.247 14.0244 30.1683 13.8344 30.0282 13.6944C29.8882 13.5543 29.6982 13.4756 29.5001 13.4756C26.5988 13.4782 23.786 14.4742 21.5296 16.2979C19.2732 18.1215 17.7093 20.6628 17.0982 23.499C16.487 26.3351 16.8655 29.2949 18.1706 31.886C19.4757 34.4771 21.6287 36.5432 24.2714 37.7404V38.8721H23.5244C22.9301 38.8721 22.3601 39.1082 21.9399 39.5284C21.5196 39.9486 21.2835 40.5186 21.2835 41.1129V42.6068C21.2835 43.2012 21.5196 43.7711 21.9399 44.1914C22.3601 44.6116 22.9301 44.8477 23.5244 44.8477H24.2714V47.0886C24.2726 48.0787 24.6664 49.028 25.3666 49.7282C26.0667 50.4283 27.016 50.8222 28.0061 50.8234H30.994C31.9841 50.8222 32.9334 50.4283 33.6335 49.7282C34.3337 49.028 34.7276 48.0787 34.7287 47.0886V44.8477H35.4757C36.07 44.8477 36.64 44.6116 37.0602 44.1914C37.4805 43.7711 37.7166 43.2012 37.7166 42.6068V41.1129C37.7166 40.5186 37.4805 39.9486 37.0602 39.5284C36.64 39.1082 36.07 38.8721 35.4757 38.8721H34.7287V37.7404C36.9585 36.7406 38.8506 35.116 40.1763 33.0632C41.502 31.0104 42.2043 28.6174 42.1983 26.1738C42.1983 25.9757 42.1196 25.7857 41.9795 25.6456C41.8394 25.5056 41.6494 25.4269 41.4513 25.4269ZM28.7531 14.9941V17.9573C27.9607 17.9573 27.2007 18.2721 26.6404 18.8324C26.0801 19.3928 25.7653 20.1527 25.7653 20.9451C25.7653 21.7376 26.0801 22.4975 26.6404 23.0578C27.2007 23.6182 27.9607 23.933 28.7531 23.933V25.4269H26.3748C26.2553 25.4269 26.1375 25.4557 26.0314 25.5107C25.9253 25.5657 25.834 25.6453 25.7651 25.743C25.6961 25.8406 25.6516 25.9533 25.6353 26.0717C25.6189 26.1901 25.6312 26.3107 25.6712 26.4233C25.7554 26.6493 25.7837 26.8923 25.7536 27.1315C25.7235 27.3708 25.636 27.5992 25.4984 27.7973C25.3609 27.9953 25.1774 28.1572 24.9638 28.2689C24.7501 28.3807 24.5125 28.4391 24.2714 28.4391C24.0302 28.4391 23.7927 28.3807 23.579 28.2689C23.3653 28.1572 23.1818 27.9953 23.0443 27.7973C22.9068 27.5992 22.8192 27.3708 22.7891 27.1315C22.759 26.8923 22.7873 26.6493 22.8716 26.4233C22.9115 26.3107 22.9238 26.1901 22.9075 26.0717C22.8911 25.9533 22.8466 25.8406 22.7777 25.743C22.7087 25.6453 22.6174 25.5657 22.5113 25.5107C22.4052 25.4557 22.2874 25.4269 22.1679 25.4269H18.3204C18.5048 22.7207 19.6631 20.1729 21.5811 18.2549C23.4991 16.3369 26.0469 15.1785 28.7531 14.9941ZM25.2984 36.5565C23.3451 35.7722 21.6535 34.4511 20.4192 32.746C19.185 31.0409 18.4583 29.0214 18.3234 26.9208H21.2835C21.2835 27.7132 21.5983 28.4732 22.1587 29.0335C22.719 29.5938 23.4789 29.9086 24.2714 29.9086C25.0638 29.9086 25.8238 29.5938 26.3841 29.0335C26.9444 28.4732 27.2592 27.7132 27.2592 26.9208H28.7531V29.2991C28.7532 29.4185 28.782 29.5362 28.8369 29.6422C28.8919 29.7482 28.9715 29.8395 29.069 29.9084C29.1665 29.9773 29.2791 30.0219 29.3974 30.0383C29.5157 30.0547 29.6362 30.0425 29.7488 30.0027C29.9747 29.9185 30.2177 29.8902 30.457 29.9203C30.6963 29.9503 30.9247 30.0379 31.1228 30.1754C31.3208 30.313 31.4827 30.4964 31.5944 30.7101C31.7062 30.9238 31.7646 31.1614 31.7646 31.4025C31.7646 31.6437 31.7062 31.8812 31.5944 32.0949C31.4827 32.3086 31.3208 32.492 31.1228 32.6296C30.9247 32.7671 30.6963 32.8547 30.457 32.8848C30.2177 32.9148 29.9747 32.8865 29.7488 32.8023C29.6362 32.7625 29.5157 32.7504 29.3974 32.7668C29.2791 32.7832 29.1665 32.8277 29.069 32.8966C28.9715 32.9655 28.8919 33.0568 28.8369 33.1629C28.782 33.2689 28.7532 33.3865 28.7531 33.5059V38.8721H25.7653V37.2482C25.7651 37.0995 25.7206 36.9543 25.6375 36.8311C25.5543 36.7079 25.4362 36.6123 25.2984 36.5565ZM33.2348 47.0886C33.2348 47.6829 32.9987 48.2529 32.5785 48.6731C32.1583 49.0934 31.5883 49.3294 30.994 49.3294H28.0061C27.4118 49.3294 26.8419 49.0934 26.4216 48.6731C26.0014 48.2529 25.7653 47.6829 25.7653 47.0886V44.8477H27.2592V47.0886C27.2592 47.2867 27.3379 47.4767 27.478 47.6168C27.618 47.7568 27.808 47.8355 28.0061 47.8355C28.2043 47.8355 28.3942 47.7568 28.5343 47.6168C28.6744 47.4767 28.7531 47.2867 28.7531 47.0886V44.8477H30.247V47.0886C30.247 47.2867 30.3257 47.4767 30.4658 47.6168C30.6059 47.7568 30.7959 47.8355 30.994 47.8355C31.1921 47.8355 31.3821 47.7568 31.5221 47.6168C31.6622 47.4767 31.7409 47.2867 31.7409 47.0886V44.8477H33.2348V47.0886ZM35.4757 40.366C35.6738 40.366 35.8638 40.4447 36.0039 40.5848C36.144 40.7248 36.2227 40.9148 36.2227 41.1129V42.6068C36.2227 42.805 36.144 42.9949 36.0039 43.135C35.8638 43.2751 35.6738 43.3538 35.4757 43.3538H23.5244C23.3263 43.3538 23.1363 43.2751 22.9962 43.135C22.8562 42.9949 22.7775 42.805 22.7775 42.6068V41.1129C22.7775 40.9148 22.8562 40.7248 22.9962 40.5848C23.1363 40.4447 23.3263 40.366 23.5244 40.366H35.4757ZM33.7017 36.5565C33.5638 36.6123 33.4456 36.708 33.3624 36.8314C33.2793 36.9548 33.2348 37.1001 33.2348 37.2489V38.8721H30.247V34.3903C31.0394 34.3903 31.7994 34.0755 32.3597 33.5152C32.92 32.9549 33.2348 32.1949 33.2348 31.4025C33.2348 30.6101 32.92 29.8501 32.3597 29.2898C31.7994 28.7295 31.0394 28.4147 30.247 28.4147V26.9208H32.6253C32.7448 26.9207 32.8626 26.892 32.9687 26.837C33.0748 26.782 33.1661 26.7023 33.2351 26.6047C33.304 26.5071 33.3485 26.3943 33.3648 26.276C33.3812 26.1576 33.3689 26.037 33.3289 25.9243C33.2447 25.6984 33.2164 25.4554 33.2465 25.2161C33.2766 24.9769 33.3641 24.7485 33.5017 24.5504C33.6392 24.3523 33.8227 24.1905 34.0364 24.0787C34.25 23.9669 34.4876 23.9086 34.7287 23.9086C34.9699 23.9086 35.2075 23.9669 35.4211 24.0787C35.6348 24.1905 35.8183 24.3523 35.9558 24.5504C36.0934 24.7485 36.1809 24.9769 36.211 25.2161C36.2411 25.4554 36.2128 25.6984 36.1285 25.9243C36.0886 26.037 36.0763 26.1576 36.0927 26.276C36.109 26.3943 36.1535 26.5071 36.2224 26.6047C36.2914 26.7023 36.3827 26.782 36.4888 26.837C36.5949 26.892 36.7127 26.9207 36.8322 26.9208H40.6797C40.5441 29.0216 39.817 31.0413 38.5822 32.7463C37.3474 34.4514 35.6554 35.7723 33.7017 36.5565Z" fill="white"/>
<path d="M35.4757 7.5C35.2776 7.5 35.0876 7.5787 34.9476 7.71878C34.8075 7.85886 34.7288 8.04885 34.7288 8.24696V11.9817C33.9364 11.9817 33.1764 12.2965 32.6161 12.8568C32.0558 13.4172 31.741 14.1771 31.741 14.9696C31.741 15.762 32.0558 16.5219 32.6161 17.0823C33.1764 17.6426 33.9364 17.9574 34.7288 17.9574V20.1982C34.7288 20.3963 34.8075 20.5863 34.9476 20.7264C35.0876 20.8665 35.2776 20.9452 35.4757 20.9452H38.601C38.7205 20.9451 38.8383 20.9164 38.9444 20.8614C39.0505 20.8064 39.1418 20.7267 39.2107 20.6291C39.2797 20.5315 39.3242 20.4187 39.3405 20.3004C39.3569 20.182 39.3446 20.0614 39.3046 19.9488C39.2204 19.7228 39.1921 19.4798 39.2222 19.2406C39.2523 19.0013 39.3398 18.7729 39.4774 18.5748C39.6149 18.3767 39.7984 18.2149 40.012 18.1031C40.2257 17.9914 40.4633 17.933 40.7044 17.933C40.9456 17.933 41.1831 17.9914 41.3968 18.1031C41.6105 18.2149 41.794 18.3767 41.9315 18.5748C42.069 18.7729 42.1566 19.0013 42.1867 19.2406C42.2168 19.4798 42.1885 19.7228 42.1042 19.9488C42.0643 20.0614 42.052 20.182 42.0683 20.3004C42.0847 20.4187 42.1292 20.5315 42.1981 20.6291C42.2671 20.7267 42.3584 20.8064 42.4645 20.8614C42.5706 20.9164 42.6884 20.9451 42.8079 20.9452H47.427C47.6251 20.9452 47.8151 20.8665 47.9552 20.7264C48.0953 20.5863 48.174 20.3963 48.174 20.1982C48.1702 16.8316 46.8312 13.6039 44.4506 11.2234C42.07 8.84281 38.8424 7.50376 35.4757 7.5ZM43.6923 19.4513C43.6923 18.6589 43.3775 17.8989 42.8171 17.3386C42.2568 16.7783 41.4969 16.4635 40.7044 16.4635C39.912 16.4635 39.152 16.7783 38.5917 17.3386C38.0314 17.8989 37.7166 18.6589 37.7166 19.4513H36.2227V17.073C36.2226 16.9536 36.1938 16.8359 36.1389 16.7299C36.0839 16.6239 36.0043 16.5326 35.9068 16.4637C35.8093 16.3947 35.6967 16.3502 35.5784 16.3338C35.4601 16.3174 35.3396 16.3296 35.227 16.3693C35.0011 16.4536 34.7581 16.4819 34.5188 16.4518C34.2795 16.4217 34.0511 16.3342 33.853 16.1966C33.655 16.0591 33.4931 15.8756 33.3814 15.6619C33.2696 15.4483 33.2112 15.2107 33.2112 14.9696C33.2112 14.7284 33.2696 14.4908 33.3814 14.2772C33.4931 14.0635 33.655 13.88 33.853 13.7425C34.0511 13.6049 34.2795 13.5174 34.5188 13.4873C34.7581 13.4572 35.0011 13.4855 35.227 13.5698C35.3396 13.6095 35.4601 13.6217 35.5784 13.6053C35.6967 13.5889 35.8093 13.5444 35.9068 13.4754C36.0043 13.4065 36.0839 13.3152 36.1389 13.2092C36.1938 13.1032 36.2226 12.9855 36.2227 12.8661V9.01856C38.9289 9.20295 41.4767 10.3613 43.3947 12.2793C45.3127 14.1973 46.471 16.7451 46.6554 19.4513H43.6923Z" fill="white"/>
<defs>
<linearGradient id="paint0_linear_14_64" x1="29.5" y1="0.5" x2="29.5" y2="58.5" gradientUnits="userSpaceOnUse">
<stop stop-color="#00D2FF"/>
<stop offset="1" stop-color="#059DBE"/>
</linearGradient>
</defs>
</svg>
