<svg width="59" height="59" viewBox="0 0 59 59" fill="none" xmlns="http://www.w3.org/2000/svg">
<circle cx="29.5" cy="29.5" r="29" fill="white" fill-opacity="0.2"/>
<path d="M29.2769 33.3499C31.4256 33.3499 33.1725 31.6029 33.1725 29.4542C33.1725 27.3056 31.4256 25.5586 29.2769 25.5586C27.1282 25.5586 25.3813 27.3056 25.3813 29.4542C25.3813 31.6029 27.1282 33.3499 29.2769 33.3499ZM29.2769 26.5264C30.8932 26.5264 32.2047 27.8379 32.2047 29.4542C32.2047 31.0705 30.8932 32.382 29.2769 32.382C27.6606 32.382 26.3491 31.0705 26.3491 29.4542C26.3491 27.8379 27.6606 26.5264 29.2769 26.5264ZM29.2769 17.656C31.803 17.656 33.8549 15.6041 33.8549 13.078C33.8549 10.5519 31.803 8.5 29.2769 8.5C26.7508 8.5 24.6989 10.5519 24.6989 13.078C24.6989 15.6041 26.7508 17.656 29.2769 17.656ZM25.991 14.5637H26.6298C26.6782 14.9556 26.7459 15.3428 26.8379 15.7299C26.4806 15.4016 26.1926 15.0051 25.991 14.5637ZM32.887 13.078C32.887 13.257 32.8677 13.4264 32.8435 13.5958H32.0208C32.0353 13.2425 32.0353 12.8844 32.0208 12.5263H32.8435C32.8725 12.7054 32.8919 12.8893 32.8919 13.0731L32.887 13.078ZM31.0529 13.5958H29.7608V12.5263H31.0481C31.0674 12.8844 31.0674 13.2377 31.0481 13.5958H31.0529ZM28.0429 16.4655C27.8396 15.8364 27.6944 15.2024 27.6025 14.5637H28.793V16.6494C28.5316 16.6155 28.2848 16.5526 28.0429 16.4655ZM29.7608 14.5637H30.961C30.869 15.2024 30.7239 15.8364 30.5109 16.4655C30.269 16.5526 30.0222 16.6155 29.7608 16.6494V14.5637ZM29.7608 11.5584V9.50174C30.0222 9.53561 30.269 9.59852 30.5109 9.68563C30.7142 10.3099 30.8594 10.9342 30.9513 11.5584H29.7608ZM28.793 11.5584H27.6122C27.7041 10.9342 27.8445 10.3099 28.0429 9.68563C28.28 9.59852 28.5316 9.53561 28.793 9.50174V11.5584ZM28.793 12.5263V13.5958H27.5154C27.5009 13.2425 27.5009 12.8844 27.5154 12.5263H28.7881H28.793ZM26.5475 13.5958H25.7103C25.6861 13.4264 25.6668 13.2522 25.6668 13.078C25.6668 12.8893 25.6861 12.7102 25.7152 12.5311H26.5524C26.533 12.8893 26.533 13.2425 26.5524 13.6006L26.5475 13.5958ZM31.7304 15.7203C31.8224 15.3379 31.8901 14.9508 31.9385 14.5637H32.5628C32.3644 15.004 32.0789 15.396 31.7256 15.7203H31.7304ZM32.5531 11.5584H31.9288C31.8756 11.181 31.8079 10.8035 31.7208 10.4212C32.0692 10.7406 32.3499 11.1229 32.5531 11.5584ZM26.8476 10.4164C26.7605 10.7987 26.6927 11.181 26.6443 11.5584H26.0104C26.2136 11.1229 26.4991 10.7358 26.8476 10.4164ZM16.4527 29.9381C17.6529 29.9381 18.6304 28.9606 18.6304 27.7556C18.6304 27.0926 18.311 26.4684 17.7835 26.057C17.7835 24.852 16.806 23.8745 15.6058 23.8745C15.3929 23.8745 15.1848 23.9084 14.9816 23.981C14.5025 22.9066 13.4233 22.1759 12.2183 22.1759C10.5488 22.1759 9.19376 23.5357 9.19376 25.2101C9.19376 25.3456 9.20344 25.486 9.22279 25.6215C8.73515 25.7271 8.29834 25.9964 7.98493 26.3846C7.67153 26.7729 7.5004 27.2567 7.5 27.7556C7.5 28.9606 8.47754 29.9381 9.67769 29.9381H16.4527ZM8.46786 27.7556C8.46786 27.4343 8.59517 27.1261 8.82192 26.8984C9.04867 26.6708 9.35638 26.5422 9.67769 26.541H9.83255C9.98741 26.541 10.1374 26.4635 10.2294 26.3377C10.3213 26.207 10.3407 26.0425 10.2923 25.8973C10.2052 25.6554 10.1665 25.4279 10.1665 25.2101C10.1665 24.0729 11.0908 23.1438 12.2232 23.1438C13.1814 23.1438 14.0234 23.8261 14.2315 24.7649C14.2654 24.9198 14.3718 25.0504 14.5218 25.1085C14.6719 25.1666 14.8364 25.1521 14.9719 25.065C15.2042 24.9149 15.4074 24.8424 15.6155 24.8424C16.2833 24.8424 16.8254 25.3892 16.8205 26.0619C16.806 26.1103 16.7963 26.1635 16.7866 26.2167C16.7576 26.4151 16.8544 26.6135 17.0334 26.7103C17.4351 26.9329 17.6771 27.3249 17.6771 27.7556C17.6771 28.0769 17.5498 28.3852 17.323 28.6128C17.0963 28.8405 16.7886 28.969 16.4672 28.9703H9.67769C9.35638 28.969 9.04867 28.8405 8.82192 28.6128C8.59517 28.3852 8.46786 28.0769 8.46786 27.7556ZM50.5699 22.6598H44.2788C44.0126 22.6598 43.7948 22.8776 43.7948 23.1438V24.1116H42.343C42.0769 24.1116 41.8591 24.3294 41.8591 24.5955V32.8224C41.8591 33.0885 42.0769 33.3063 42.343 33.3063H49.1181C49.3842 33.3063 49.602 33.0885 49.602 32.8224V31.8545H50.5699C50.836 31.8545 51.0538 31.6367 51.0538 31.3706V23.1438C51.0538 22.8776 50.836 22.6598 50.5699 22.6598ZM48.6341 32.3384H42.827V25.0795H47.2259L48.6341 26.4442V32.3384ZM50.0859 30.8867H49.602V26.2409C49.602 26.1103 49.5488 25.9844 49.4568 25.8925L47.7631 24.2471C47.6711 24.16 47.5501 24.1116 47.4243 24.1116H44.7627V23.6277H50.0859V30.8867Z" fill="white"/>
<path d="M43.3108 27.983C43.3108 28.2492 43.5286 28.467 43.7947 28.467H47.6662C47.9324 28.467 48.1501 28.2492 48.1501 27.983C48.1501 27.7169 47.9324 27.4991 47.6662 27.4991H43.7947C43.5286 27.4991 43.3108 27.7169 43.3108 27.983ZM47.6662 28.9509H43.7947C43.5286 28.9509 43.3108 29.1687 43.3108 29.4348C43.3108 29.701 43.5286 29.9188 43.7947 29.9188H47.6662C47.9324 29.9188 48.1501 29.701 48.1501 29.4348C48.1501 29.1687 47.9324 28.9509 47.6662 28.9509ZM14.846 21.6823C14.9234 21.7258 15.0057 21.7452 15.088 21.7452C15.2573 21.7452 15.417 21.6581 15.509 21.5032C15.6687 21.2322 15.8332 20.966 16.0026 20.7047C16.0738 20.5976 16.0996 20.4665 16.0741 20.3403C16.0487 20.2142 15.9742 20.1033 15.8671 20.0321C15.7599 19.9608 15.6288 19.9351 15.5027 19.9605C15.3765 19.9859 15.2656 20.0604 15.1944 20.1676C15.0105 20.4434 14.8363 20.7289 14.6669 21.0193C14.5314 21.2516 14.6137 21.5468 14.8411 21.6823H14.846ZM16.6027 19.5626C16.743 19.5626 16.8833 19.5046 16.9753 19.3836C17.3189 18.9626 17.6915 18.5512 18.0835 18.1689C18.1283 18.1241 18.1638 18.0709 18.1881 18.0124C18.2123 17.9539 18.2248 17.8911 18.2248 17.8278C18.2248 17.7644 18.2123 17.7017 18.1881 17.6431C18.1638 17.5846 18.1283 17.5314 18.0835 17.4866C18.0387 17.4418 17.9855 17.4062 17.927 17.382C17.8684 17.3577 17.8057 17.3453 17.7423 17.3453C17.679 17.3453 17.6162 17.3577 17.5577 17.382C17.4991 17.4062 17.4459 17.4418 17.4011 17.4866C16.9898 17.8979 16.593 18.3286 16.2252 18.7787C16.1847 18.8279 16.1544 18.8846 16.1359 18.9455C16.1174 19.0065 16.1111 19.0705 16.1174 19.1339C16.1237 19.1973 16.1424 19.2588 16.1725 19.315C16.2027 19.3711 16.2436 19.4207 16.2929 19.461C16.3849 19.5336 16.4914 19.5723 16.5978 19.5723L16.6027 19.5626ZM19.0078 17.1769C19.1143 17.1769 19.2207 17.143 19.3127 17.0704C19.7385 16.7268 20.1886 16.4026 20.6435 16.1074C20.8661 15.9622 20.9338 15.6622 20.7838 15.4396C20.6338 15.2169 20.3386 15.1492 20.116 15.2944C19.6321 15.6089 19.1578 15.9525 18.7029 16.3155C18.6252 16.3786 18.5689 16.4642 18.5417 16.5606C18.5146 16.6569 18.518 16.7594 18.5514 16.8538C18.5848 16.9481 18.6466 17.0299 18.7283 17.0877C18.81 17.1456 18.9077 17.1767 19.0078 17.1769ZM21.8485 15.3379C21.9211 15.3379 21.9985 15.3186 22.0662 15.2847C22.3469 15.1444 22.6276 15.0089 22.9131 14.883C23.1599 14.7766 23.2712 14.4911 23.1648 14.2442C23.0583 14.0023 22.7728 13.8861 22.526 13.9926C22.2211 14.1281 21.9211 14.2684 21.6259 14.4185C21.3887 14.5394 21.2919 14.8298 21.4129 15.0718C21.5 15.2411 21.6694 15.3379 21.8436 15.3379H21.8485ZM43.0446 21.5081C43.1318 21.6629 43.2963 21.75 43.4657 21.75C43.5479 21.75 43.6302 21.7307 43.7076 21.6871C43.9399 21.5516 44.0174 21.2564 43.8819 21.0241C43.7173 20.7338 43.5383 20.4531 43.3544 20.1724C43.3192 20.1192 43.2739 20.0735 43.221 20.0379C43.1681 20.0022 43.1087 19.9774 43.0462 19.9648C42.9837 19.9522 42.9193 19.9521 42.8568 19.9645C42.7942 19.9769 42.7347 20.0015 42.6817 20.0369C42.4591 20.1821 42.3962 20.4821 42.5462 20.7096C42.7204 20.9709 42.885 21.237 43.0398 21.5081H43.0446ZM37.9101 16.1074C38.3699 16.4026 38.8151 16.7268 39.2409 17.0704C39.3413 17.1506 39.4693 17.188 39.597 17.1744C39.7248 17.1608 39.842 17.0973 39.9233 16.9978C40.0927 16.7897 40.0588 16.4848 39.8507 16.3155C39.3958 15.9525 38.9216 15.6089 38.4376 15.2944C38.3844 15.2597 38.3247 15.2359 38.2622 15.2245C38.1997 15.213 38.1355 15.214 38.0734 15.2275C38.0113 15.241 37.9525 15.2667 37.9004 15.3031C37.8482 15.3395 37.8039 15.3859 37.7698 15.4396C37.7002 15.5468 37.6759 15.6773 37.7022 15.8024C37.7285 15.9275 37.8033 16.0372 37.9101 16.1074ZM41.5783 19.3836C41.6234 19.4391 41.6801 19.484 41.7446 19.5149C41.809 19.5459 41.8795 19.5622 41.951 19.5626C42.0574 19.5626 42.1687 19.5288 42.2558 19.4513C42.3052 19.4111 42.3461 19.3614 42.3762 19.3053C42.4064 19.2492 42.4251 19.1876 42.4314 19.1242C42.4377 19.0608 42.4314 18.9968 42.4129 18.9359C42.3944 18.8749 42.3641 18.8182 42.3236 18.769C41.9558 18.3238 41.5638 17.8882 41.1476 17.4769C41.1028 17.4321 41.0496 17.3966 40.9911 17.3723C40.9326 17.3481 40.8698 17.3356 40.8065 17.3356C40.7431 17.3356 40.6804 17.3481 40.6218 17.3723C40.5633 17.3966 40.5101 17.4321 40.4653 17.4769C40.4205 17.5217 40.385 17.5749 40.3607 17.6334C40.3365 17.692 40.324 17.7547 40.324 17.8181C40.324 17.8814 40.3365 17.9442 40.3607 18.0027C40.385 18.0613 40.4205 18.1144 40.4653 18.1592C40.8524 18.5464 41.2251 18.9529 41.5735 19.3739L41.5783 19.3836ZM35.6357 14.883C35.9212 15.0089 36.2067 15.1444 36.4825 15.2847C36.5551 15.3186 36.6277 15.3379 36.7003 15.3379C36.8095 15.3376 36.9153 15.3005 37.0008 15.2327C37.0863 15.1649 37.1465 15.0702 37.1717 14.964C37.1968 14.8578 37.1855 14.7463 37.1395 14.6473C37.0935 14.5483 37.0155 14.4677 36.9181 14.4185C36.6229 14.2684 36.3228 14.1281 36.018 13.9926C35.7712 13.8861 35.4856 13.9974 35.3792 14.2442C35.2727 14.4911 35.3792 14.7766 35.6308 14.883H35.6357ZM38.7957 34.7145C37.2762 35.8034 31.8707 41.3347 31.6529 41.5573C30.8553 42.3157 29.7967 42.7384 28.6961 42.7381H24.0649C23.8084 42.7381 22.9663 42.651 22.9663 41.5912C22.9663 40.5314 23.9003 40.4685 24.0891 40.4636H28.9284C29.6785 40.4298 31.1012 39.9313 31.1012 38.2908C31.1012 37.7439 30.9319 37.3326 30.6754 37.0277C31.6626 36.8342 32.6256 36.4712 33.2886 36.0889L33.9177 36.7325C34.0968 36.9164 34.4258 36.9164 34.6097 36.7325L36.2696 35.0339C36.4535 34.8452 36.4535 34.5452 36.2696 34.3564L35.6405 33.7128C36.1051 32.9675 36.4342 32.1545 36.6229 31.2883H37.5036C37.7698 31.2883 37.9876 31.0705 37.9876 30.8044V28.4041C37.9876 28.1379 37.7698 27.9201 37.5036 27.9201H36.6229C36.4342 27.0539 36.1051 26.2457 35.6405 25.4956L36.2696 24.852C36.4535 24.6633 36.4535 24.3632 36.2696 24.1745L34.6097 22.4759C34.4307 22.292 34.1016 22.292 33.9177 22.4759L33.2983 23.1099C32.5724 22.6404 31.7787 22.3065 30.9367 22.113V21.2032C30.9367 20.937 30.7189 20.7192 30.4528 20.7192H28.1009C27.8347 20.7192 27.6169 20.937 27.6169 21.2032V22.113C26.7749 22.3065 25.9812 22.6404 25.2553 23.1099L24.6359 22.4759C24.4569 22.292 24.1278 22.292 23.9439 22.4759L22.284 24.1745C22.1001 24.3632 22.1001 24.6633 22.284 24.852L22.9131 25.4956C22.4485 26.2409 22.1195 27.0539 21.9307 27.9201H21.05C20.7838 27.9201 20.5661 28.1379 20.5661 28.4041V30.8044C20.5661 31.0705 20.7838 31.2883 21.05 31.2883H21.9307C22.1195 32.1545 22.4485 32.9627 22.9131 33.7128L22.284 34.3564C22.1001 34.5452 22.1001 34.8452 22.284 35.0339L23.2422 36.0115C22.9228 35.8808 22.5937 35.6969 22.2598 35.4501C21.4748 34.8631 20.5203 34.5472 19.5401 34.55H19.0949C17.9867 34.55 16.9124 34.9565 16.08 35.6921L8.63231 42.2639C8.53068 42.351 8.47261 42.4768 8.46777 42.6123C8.46777 42.7429 8.51133 42.8736 8.60811 42.9704L15.6396 50.1084C15.6845 50.1541 15.7379 50.1905 15.7969 50.2154C15.8559 50.2403 15.9192 50.2533 15.9832 50.2536C16.1139 50.2536 16.2397 50.2003 16.3268 50.1035L17.8706 48.4969C18.3624 48.0471 19.0043 47.7969 19.6708 47.7952H30.7915C31.8562 47.7952 32.8676 47.3306 33.5548 46.5224L40.654 38.6295C42.1639 36.8729 42.0332 35.5179 41.409 34.8307C40.7702 34.1338 39.6717 34.0854 38.7909 34.7194L38.7957 34.7145ZM22.8115 30.7269C22.7728 30.4946 22.5695 30.3204 22.3324 30.3204H21.5339V28.888H22.3324C22.4476 28.8883 22.5591 28.8476 22.6469 28.7731C22.7347 28.6986 22.7931 28.5952 22.8115 28.4815C22.976 27.4749 23.3535 26.5409 23.9342 25.7134C24.0697 25.5247 24.0455 25.2634 23.881 25.0988L23.3099 24.5133L24.2923 23.5067L24.8537 24.0777C25.0231 24.2519 25.2892 24.2713 25.4828 24.131C26.291 23.5406 27.2007 23.1583 28.188 22.9889C28.3008 22.9694 28.403 22.9106 28.4765 22.8229C28.5501 22.7352 28.5902 22.6242 28.5896 22.5098V21.6871H29.9737V22.5098C29.9737 22.7469 30.143 22.9453 30.3753 22.9889C31.3577 23.1583 32.2675 23.5406 33.0805 24.131C33.2741 24.2713 33.5451 24.2519 33.7096 24.0777L34.271 23.5067L35.2534 24.5133L34.6823 25.0988C34.6033 25.1791 34.5548 25.2844 34.5451 25.3965C34.5354 25.5087 34.5651 25.6208 34.6291 25.7134C35.2098 26.5409 35.5873 27.4749 35.7518 28.4815C35.7905 28.7138 35.9938 28.888 36.2309 28.888H37.0294V30.3204H36.2309C36.1157 30.3201 36.0042 30.3609 35.9164 30.4354C35.8286 30.5099 35.7702 30.6133 35.7518 30.7269C35.5873 31.7335 35.2098 32.6675 34.6291 33.495C34.4936 33.6838 34.5178 33.9451 34.6823 34.1096L35.2534 34.6952L34.271 35.7017L33.7096 35.1307C33.5402 34.9613 33.2741 34.9371 33.0805 35.0775C31.2174 36.3841 27.4863 36.7858 25.4876 35.0775C25.2941 34.9371 25.0279 34.9613 24.8585 35.1307L24.2972 35.7017L23.3148 34.6952L23.8858 34.1096C23.9648 34.0294 24.0133 33.9241 24.0231 33.8119C24.0328 33.6997 24.0031 33.5877 23.9391 33.495C23.3583 32.6675 22.9809 31.7335 22.8163 30.7269H22.8115ZM39.933 37.9859L32.8337 45.8788C32.5835 46.1736 32.272 46.4102 31.921 46.5724C31.57 46.7345 31.1878 46.8182 30.8012 46.8176H19.6756C18.7658 46.8176 17.8948 47.1564 17.1979 47.7952L15.9784 49.0631L9.6534 42.6462L16.7188 36.4131C17.3744 35.8331 18.2196 35.513 19.0949 35.513H19.5401C20.3144 35.513 21.0548 35.7598 21.6791 36.2244C22.5647 36.8825 23.4261 37.2019 24.3214 37.2019H28.8606C29.0736 37.2019 30.1334 37.2794 30.1334 38.2908C30.1334 39.3699 29.0929 39.4813 28.909 39.4958H24.0939C24.002 39.4958 23.1696 39.5006 22.5647 40.0958C22.1872 40.4685 21.9985 40.9718 21.9985 41.5864C21.9985 42.2009 22.1921 42.7284 22.5744 43.1059C23.1696 43.6963 23.9729 43.7011 24.0697 43.7011H28.6961C30.0463 43.7011 31.3335 43.1882 32.3304 42.2445C32.3836 42.1864 37.9053 36.539 39.3571 35.5033C39.8265 35.1694 40.4024 35.1597 40.6976 35.4791C41.0267 35.8421 41.0218 36.718 39.933 37.9859Z" fill="white"/>
</svg>
